<svg width="40" height="40" viewBox="0 0 40 40" fill="none" xmlns="http://www.w3.org/2000/svg">
<path d="M5.14196 35.5258C4.27385 35.5258 3.40568 35.3255 2.67112 34.8581C1.00167 33.9232 0 32.1869 0 30.3172V6.61095C0 3.67271 1.86982 1.13514 4.54094 0.267029C4.14027 0.667697 3.8064 1.20193 3.47251 1.73615C2.2705 4.00661 2.33722 6.74452 3.73956 8.88142L16.6945 29.0484L7.94661 34.6577C7.07849 35.2587 6.14363 35.5258 5.14196 35.5258Z" fill="#CBD5E0"/>
<path d="M5.20844 7.94661C4.20677 6.34393 4.13996 4.34057 5.00807 2.67112C5.94296 1.00167 7.67923 0 9.54901 0H33.2552C36.1935 0 38.731 1.86982 39.5991 4.54094C39.1985 4.14027 38.6642 3.80636 38.13 3.47247C37.1283 2.93824 35.9263 2.60436 34.7911 2.60436C33.4555 2.60436 32.12 3.00504 30.9848 3.7396L10.8178 16.6945L5.20844 7.94661Z" fill="#CBD5E0"/>
<path d="M35.4591 39.5995C35.8597 39.1988 36.1937 38.6646 36.5276 38.1303C37.7296 35.8599 37.6628 33.122 36.2604 30.9851L23.3055 10.8181L32.0534 5.20875C32.9215 4.67453 33.8564 4.40741 34.8581 4.40741C35.7262 4.40741 36.5943 4.60774 37.3289 5.07519C38.9983 6.01008 40 7.7463 40 9.61609V33.3223C40 36.1938 38.1302 38.7313 35.4591 39.5995Z" fill="#CBD5E0"/>
<path d="M6.67781 40C3.73957 40 1.202 38.1302 0.33389 35.4591C0.734558 35.8598 1.26883 36.1936 1.80306 36.5275C2.80473 37.0618 4.00673 37.3956 5.14196 37.3956C6.47752 37.3956 7.81305 36.995 8.94828 36.2604L29.1152 23.3055L34.7246 32.0534C35.7263 33.6561 35.7931 35.6594 34.925 37.3289C33.9901 38.9983 32.2538 40 30.384 40H6.67781Z" fill="#CBD5E0"/>
</svg>
