<svg width="180" height="30" viewBox="0 0 180 30" fill="none" xmlns="http://www.w3.org/2000/svg">
<path d="M59.2671 26.6415H62.9851L66.0874 15.7006L69.2133 26.6415H72.9313L77.5729 10.0645H74.1391L70.9658 22.3551L67.4846 10.0645H64.6902L61.2327 22.3551L58.0594 10.0645H54.6255L59.2671 26.6415Z" fill="#A0AEC0"/>
<path d="M83.5513 26.973C87.0325 26.973 89.8269 24.2497 89.8269 20.7211C89.8269 17.1926 87.0325 14.4692 83.5513 14.4692C80.0702 14.4692 77.2994 17.1926 77.2994 20.7211C77.2994 24.2497 80.0702 26.973 83.5513 26.973ZM83.5513 23.9892C81.7516 23.9892 80.3544 22.6393 80.3544 20.7211C80.3544 18.8029 81.7516 17.4531 83.5513 17.4531C85.3748 17.4531 86.772 18.8029 86.772 20.7211C86.772 22.6393 85.3748 23.9892 83.5513 23.9892Z" fill="#A0AEC0"/>
<path d="M95.0309 16.8374V14.8007H91.976V26.6415H95.0309V20.9816C95.0309 18.4951 97.0439 17.7846 98.6305 17.9741V14.5639C97.1386 14.5639 95.6467 15.227 95.0309 16.8374Z" fill="#A0AEC0"/>
<path d="M111.334 26.6415L106.432 20.6501L111.192 14.8007H107.545L103.472 20.0107V10.0645H100.417V26.6415H103.472V21.2658L107.782 26.6415H111.334Z" fill="#A0AEC0"/>
<path fill-rule="evenodd" clip-rule="evenodd" d="M42.3417 11.4503L34.7457 7.06463V27.436H43.6261V29.4095H0.210065V27.436H4.157V14.8855L0.478633 15.8051L0 13.8906L20.8091 8.68831H23.8904C23.5503 9.49488 23.3243 10.3454 23.2191 11.213L22.7433 15.1352L27.8385 12.1934V27.436H32.7722V7.06583L25.1781 11.4505C25.3968 9.64708 26.2746 7.94175 27.7094 6.71472H23.645C24.995 4.91724 27.1448 3.75454 29.5663 3.75454C29.7802 3.75454 29.9932 3.76369 30.2023 3.78164L24.6847 0.59585C26.7526 -0.285725 29.1953 -0.217911 31.2921 0.992734C32.3174 1.58451 33.148 2.38466 33.7599 3.30875C34.3718 2.38466 35.2014 1.58451 36.2267 0.992734C38.3235 -0.217911 40.7672 -0.285725 42.8351 0.59585L37.3165 3.78164C37.5266 3.76369 37.7396 3.75454 37.9545 3.75454C40.375 3.75454 42.5248 4.91724 43.8748 6.71472H39.8094C41.2452 7.94175 42.123 9.64708 42.3417 11.4503ZM23.8916 27.436V17.5688H17.9712V27.436H23.8916ZM13.0376 19.5423C13.0376 20.6322 12.154 21.5157 11.0641 21.5157C9.9742 21.5157 9.09065 20.6322 9.09065 19.5423C9.09065 18.4524 9.9742 17.5688 11.0641 17.5688C12.154 17.5688 13.0376 18.4524 13.0376 19.5423Z" fill="#A0AEC0"/>
<path d="M118.495 26.9733C120.816 26.9733 122.829 25.7418 123.847 23.8947L121.195 22.3791C120.721 23.35 119.703 23.942 118.472 23.942C116.648 23.942 115.298 22.5922 115.298 20.7214C115.298 18.8268 116.648 17.477 118.472 17.477C119.679 17.477 120.698 18.0927 121.171 19.0637L123.8 17.5244C122.829 15.7009 120.816 14.4694 118.495 14.4694C114.896 14.4694 112.243 17.1928 112.243 20.7214C112.243 24.2499 114.896 26.9733 118.495 26.9733Z" fill="#A0AEC0"/>
<path d="M134.277 14.801V16.1982C133.424 15.1325 132.146 14.4694 130.417 14.4694C127.267 14.4694 124.662 17.1928 124.662 20.7214C124.662 24.2499 127.267 26.9733 130.417 26.9733C132.146 26.9733 133.424 26.3102 134.277 25.2445V26.6417H137.332V14.801H134.277ZM130.985 24.0604C129.114 24.0604 127.717 22.7106 127.717 20.7214C127.717 18.7321 129.114 17.3823 130.985 17.3823C132.88 17.3823 134.277 18.7321 134.277 20.7214C134.277 22.7106 132.88 24.0604 130.985 24.0604Z" fill="#A0AEC0"/>
<path d="M146.875 17.7375V14.801H144.199V11.4856L141.144 12.4092V14.801H139.084V17.7375H141.144V22.6632C141.144 25.8602 142.589 27.1154 146.875 26.6417V23.871C145.123 23.9657 144.199 23.942 144.199 22.6632V17.7375H146.875Z" fill="#A0AEC0"/>
<path d="M150.544 13.3801C151.586 13.3801 152.439 12.5276 152.439 11.5093C152.439 10.491 151.586 9.61475 150.544 9.61475C149.526 9.61475 148.674 10.491 148.674 11.5093C148.674 12.5276 149.526 13.3801 150.544 13.3801ZM149.029 26.6417H152.084V14.801H149.029V26.6417Z" fill="#A0AEC0"/>
<path d="M160.516 26.9733C163.997 26.9733 166.792 24.2499 166.792 20.7214C166.792 17.1928 163.997 14.4694 160.516 14.4694C157.035 14.4694 154.264 17.1928 154.264 20.7214C154.264 24.2499 157.035 26.9733 160.516 26.9733ZM160.516 23.9894C158.716 23.9894 157.319 22.6396 157.319 20.7214C157.319 18.8032 158.716 17.4533 160.516 17.4533C162.34 17.4533 163.737 18.8032 163.737 20.7214C163.737 22.6396 162.34 23.9894 160.516 23.9894Z" fill="#A0AEC0"/>
<path d="M175.524 14.4694C173.938 14.4694 172.706 15.0615 171.996 16.1272V14.801H168.941V26.6417H171.996V20.2477C171.996 18.1874 173.109 17.3112 174.601 17.3112C175.974 17.3112 176.945 18.1401 176.945 19.7504V26.6417H180V19.3715C180 16.2219 178.034 14.4694 175.524 14.4694Z" fill="#A0AEC0"/>
</svg>
