<svg width="105" height="39" viewBox="0 0 105 39" fill="none" xmlns="http://www.w3.org/2000/svg">
<path fill-rule="evenodd" clip-rule="evenodd" d="M42.9001 16.4506V27.0001H47.3461V16.4506H50.8757V13.0576H39.3901V16.4506H42.9001ZM53.1048 21.2476C53.1048 25.2256 55.4058 27.2536 59.4813 27.2536C63.3813 27.2536 65.8773 25.4011 65.8773 21.2086V13.0576H61.4313V21.0526C61.4313 22.8856 61.0413 23.7826 59.4813 23.7826C57.9018 23.7826 57.5118 22.8856 57.5118 21.0721V13.0576H53.1048V21.2476ZM68.9652 27.0001V13.0576H74.5227C78.5397 13.0576 80.2558 14.8516 80.2558 17.8351V17.9131C80.2558 20.8186 78.3252 22.4566 74.7177 22.4566H73.3722V27.0001H68.9652ZM74.2884 19.4926H73.3719V16.3531H74.3079C75.4584 16.3531 76.0629 16.7821 76.0629 17.8546V17.9326C76.0629 18.9661 75.4584 19.4926 74.2884 19.4926ZM82.5632 27.0001V13.0576H86.9897V23.5876H92.0597V27.0001H82.5632ZM94.562 13.0576V27.0001H104.78V23.6071H98.969V21.5206H103.337V18.4201H98.969V16.4506H104.468V13.0576H94.562Z" fill="#A0AEC0"/>
<path d="M22.9999 37.6123L6.99994 32.2793V14.2197L22.9999 8.88672V37.6123Z" stroke="#A0AEC0" stroke-width="2"/>
<path d="M0 6.00001L18 0V31.5L0 25.5V6.00001Z" fill="#A0AEC0"/>
</svg>
