<svg width="96" height="20" viewBox="0 0 96 20" fill="none" xmlns="http://www.w3.org/2000/svg">
<path fill-rule="evenodd" clip-rule="evenodd" d="M37.6 17.612V2.01195C37.6 1.47887 37.8117 0.967617 38.1887 0.590669C38.5656 0.21372 39.0769 0.00195313 39.61 0.00195312C40.1431 0.00195313 40.6543 0.21372 41.0313 0.590669C41.4082 0.967617 41.62 1.47887 41.62 2.01195V17.612C41.62 18.145 41.4082 18.6563 41.0313 19.0332C40.6543 19.4102 40.1431 19.622 39.61 19.622C39.0769 19.622 38.5656 19.4102 38.1887 19.0332C37.8117 18.6563 37.6 18.145 37.6 17.612ZM56.8 18.064C55.56 19.12 53.948 19.784 51.884 19.784C47.628 19.784 44.48 16.792 44.48 12.456V12.404C44.48 8.35595 47.36 5.02395 51.488 5.02395C56.22 5.02395 58.312 8.91195 58.312 11.848C58.312 13.012 57.492 13.78 56.432 13.78H48.472C48.872 15.604 50.14 16.556 51.936 16.556C53.048 16.556 53.976 16.212 54.792 15.604C55.084 15.392 55.352 15.284 55.772 15.284C56.672 15.284 57.332 15.976 57.332 16.872C57.332 17.404 57.092 17.8 56.804 18.064H56.8ZM48.42 11.264H54.476C54.236 9.46795 53.18 8.25195 51.488 8.25195C49.82 8.25195 48.736 9.43995 48.42 11.268V11.264ZM68.972 18.012C68.524 19.04 67.78 19.756 66.696 19.756H66.488C65.4 19.756 64.66 19.068 64.208 18.012L59.88 7.98795C59.7481 7.67759 59.6762 7.34507 59.668 7.00795C59.668 6.05595 60.54 5.12795 61.624 5.12795C62.708 5.12795 63.288 5.73995 63.584 6.55995L66.624 14.784L69.716 6.50395C69.98 5.81995 70.536 5.13195 71.596 5.13195C71.848 5.12878 72.0982 5.17568 72.332 5.26994C72.5658 5.3642 72.7785 5.50395 72.9579 5.68107C73.1372 5.85819 73.2796 6.06916 73.3768 6.30174C73.474 6.53432 73.524 6.78389 73.524 7.03595C73.524 7.37995 73.392 7.79995 73.312 7.98795L68.976 18.012H68.972ZM87.092 18.064C85.852 19.12 84.236 19.784 82.172 19.784C77.916 19.784 74.768 16.792 74.768 12.456V12.404C74.768 8.35595 77.648 5.02395 81.776 5.02395C86.508 5.02395 88.6 8.91195 88.6 11.848C88.6 13.012 87.78 13.78 86.72 13.78H78.76C79.16 15.604 80.428 16.556 82.224 16.556C83.336 16.556 84.264 16.212 85.08 15.604C85.372 15.392 85.64 15.284 86.06 15.284C86.96 15.284 87.62 15.976 87.62 16.872C87.62 17.404 87.38 17.8 87.092 18.064ZM78.708 11.264H84.764C84.524 9.46795 83.468 8.25195 81.776 8.25195C80.108 8.25195 79.024 9.43995 78.708 11.268V11.264ZM91.616 17.612V2.01195C91.616 1.47887 91.8277 0.967617 92.2047 0.590669C92.5816 0.21372 93.0929 0.00195313 93.626 0.00195312C94.1591 0.00195313 94.6703 0.21372 95.0473 0.590669C95.4242 0.967617 95.636 1.47887 95.636 2.01195V17.612C95.636 18.145 95.4242 18.6563 95.0473 19.0332C94.6703 19.4102 94.1591 19.622 93.626 19.622C93.0929 19.622 92.5816 19.4102 92.2047 19.0332C91.8277 18.6563 91.616 18.145 91.616 17.612Z" fill="#A0AEC0"/>
<path fill-rule="evenodd" clip-rule="evenodd" d="M6.2 0H22.2C22.7304 0 23.2391 0.210714 23.6142 0.585786C23.9893 0.960859 24.2 1.46957 24.2 2C24.2 2.53043 23.9893 3.03914 23.6142 3.41421C23.2391 3.78929 22.7304 4 22.2 4H6.2C5.66957 4 5.16086 3.78929 4.78579 3.41421C4.41071 3.03914 4.2 2.53043 4.2 2C4.2 1.46957 4.41071 0.960859 4.78579 0.585786C5.16086 0.210714 5.66957 0 6.2 0V0ZM12 8H28C28.5304 8 29.0391 8.21071 29.4142 8.58579C29.7893 8.96086 30 9.46957 30 10C30 10.5304 29.7893 11.0391 29.4142 11.4142C29.0391 11.7893 28.5304 12 28 12H12C11.4696 12 10.9609 11.7893 10.5858 11.4142C10.2107 11.0391 10 10.5304 10 10C10 9.46957 10.2107 8.96086 10.5858 8.58579C10.9609 8.21071 11.4696 8 12 8ZM2 16H18C18.5304 16 19.0391 16.2107 19.4142 16.5858C19.7893 16.9609 20 17.4696 20 18C20 18.5304 19.7893 19.0391 19.4142 19.4142C19.0391 19.7893 18.5304 20 18 20H2C1.46957 20 0.960859 19.7893 0.585786 19.4142C0.210714 19.0391 0 18.5304 0 18C0 17.4696 0.210714 16.9609 0.585786 16.5858C0.960859 16.2107 1.46957 16 2 16Z" fill="#A0AEC0"/>
</svg>
