<svg width="18" height="18" viewBox="0 0 18 18" fill="none" xmlns="http://www.w3.org/2000/svg">
<path fill-rule="evenodd" clip-rule="evenodd" d="M15.3385 15.338H12.669V11.1605C12.669 10.1645 12.652 8.883 11.282 8.883C9.8925 8.883 9.6805 9.9685 9.6805 11.0895V15.338H7.014V6.748H9.573V7.9225H9.61C9.966 7.247 10.837 6.535 12.1355 6.535C14.839 6.535 15.3385 8.3135 15.3385 10.627V15.338ZM4.004 5.5745C3.1465 5.5745 2.455 4.881 2.455 4.026C2.455 3.1715 3.1465 2.478 4.004 2.478C4.858 2.478 5.551 3.1715 5.551 4.026C5.551 4.881 4.858 5.5745 4.004 5.5745ZM2.667 15.338H5.3395V6.748H2.667V15.338ZM16.668 0H1.3275C0.595 0 0 0.581 0 1.298V16.701C0 17.418 0.595 18 1.3275 18H16.668C17.402 18 17.9995 17.418 17.9995 16.701V1.298C17.9995 0.581 17.402 0 16.668 0Z" fill="#A0AEC0"/>
</svg>
