<svg width="20" height="17" viewBox="0 0 20 17" fill="none" xmlns="http://www.w3.org/2000/svg">
<path d="M6.2896 16.2512C13.8368 16.2512 17.9648 9.99837 17.9648 4.57598C17.9648 4.39838 17.9648 4.22158 17.9528 4.04558C18.7559 3.4647 19.4491 2.74548 20 1.92158C19.2511 2.25342 18.4567 2.47104 17.6432 2.56718C18.4998 2.05436 19.1409 1.24779 19.4472 0.297575C18.6417 0.77554 17.7605 1.11238 16.8416 1.29358C15.5697 -0.0589094 13.5486 -0.389935 11.9116 0.486119C10.2747 1.36217 9.42902 3.22744 9.8488 5.03598C6.54952 4.87057 3.47558 3.31223 1.392 0.748775C0.302898 2.62369 0.85919 5.02226 2.6624 6.22638C2.00939 6.20702 1.37062 6.03087 0.8 5.71278C0.8 5.72958 0.8 5.74718 0.8 5.76478C0.800535 7.71805 2.1774 9.4004 4.092 9.78718C3.4879 9.95193 2.85406 9.97601 2.2392 9.85758C2.77676 11.5291 4.31726 12.6742 6.0728 12.7072C4.61979 13.8491 2.82485 14.469 0.9768 14.4672C0.650323 14.4665 0.324163 14.4468 0 14.408C1.87651 15.6122 4.05993 16.2509 6.2896 16.248" fill="#A0AEC0"/>
</svg>
