<svg width="28" height="20" viewBox="0 0 28 20" fill="none" xmlns="http://www.w3.org/2000/svg">
<g clip-path="url(#clip0_1_272)">
<rect width="28" height="20" rx="2" fill="white"/>
<mask id="mask0_1_272" style="mask-type:luminance" maskUnits="userSpaceOnUse" x="0" y="0" width="28" height="20">
<rect width="28" height="20" rx="2" fill="white"/>
</mask>
<g mask="url(#mask0_1_272)">
<path fill-rule="evenodd" clip-rule="evenodd" d="M28 0H0V1.33333H28V0ZM28 2.66667H0V4H28V2.66667ZM0 5.33333H28V6.66667H0V5.33333ZM28 8H0V9.33333H28V8ZM0 10.6667H28V12H0V10.6667ZM28 13.3333H0V14.6667H28V13.3333ZM0 16H28V17.3333H0V16ZM28 18.6667H0V20H28V18.6667Z" fill="#D02F44"/>
<rect width="12" height="9.33333" fill="#46467F"/>
<g filter="url(#filter0_d_1_272)">
<path fill-rule="evenodd" clip-rule="evenodd" d="M2.66665 2.00004C2.66665 2.36823 2.36817 2.66671 1.99998 2.66671C1.63179 2.66671 1.33331 2.36823 1.33331 2.00004C1.33331 1.63185 1.63179 1.33337 1.99998 1.33337C2.36817 1.33337 2.66665 1.63185 2.66665 2.00004ZM5.33331 2.00004C5.33331 2.36823 5.03484 2.66671 4.66665 2.66671C4.29846 2.66671 3.99998 2.36823 3.99998 2.00004C3.99998 1.63185 4.29846 1.33337 4.66665 1.33337C5.03484 1.33337 5.33331 1.63185 5.33331 2.00004ZM7.33331 2.66671C7.7015 2.66671 7.99998 2.36823 7.99998 2.00004C7.99998 1.63185 7.7015 1.33337 7.33331 1.33337C6.96512 1.33337 6.66665 1.63185 6.66665 2.00004C6.66665 2.36823 6.96512 2.66671 7.33331 2.66671ZM10.6666 2.00004C10.6666 2.36823 10.3682 2.66671 9.99998 2.66671C9.63179 2.66671 9.33331 2.36823 9.33331 2.00004C9.33331 1.63185 9.63179 1.33337 9.99998 1.33337C10.3682 1.33337 10.6666 1.63185 10.6666 2.00004ZM3.33331 4.00004C3.7015 4.00004 3.99998 3.70156 3.99998 3.33337C3.99998 2.96518 3.7015 2.66671 3.33331 2.66671C2.96512 2.66671 2.66665 2.96518 2.66665 3.33337C2.66665 3.70156 2.96512 4.00004 3.33331 4.00004ZM6.66665 3.33337C6.66665 3.70156 6.36817 4.00004 5.99998 4.00004C5.63179 4.00004 5.33331 3.70156 5.33331 3.33337C5.33331 2.96518 5.63179 2.66671 5.99998 2.66671C6.36817 2.66671 6.66665 2.96518 6.66665 3.33337ZM8.66665 4.00004C9.03484 4.00004 9.33331 3.70156 9.33331 3.33337C9.33331 2.96518 9.03484 2.66671 8.66665 2.66671C8.29846 2.66671 7.99998 2.96518 7.99998 3.33337C7.99998 3.70156 8.29846 4.00004 8.66665 4.00004ZM10.6666 4.66671C10.6666 5.0349 10.3682 5.33337 9.99998 5.33337C9.63179 5.33337 9.33331 5.0349 9.33331 4.66671C9.33331 4.29852 9.63179 4.00004 9.99998 4.00004C10.3682 4.00004 10.6666 4.29852 10.6666 4.66671ZM7.33331 5.33337C7.7015 5.33337 7.99998 5.0349 7.99998 4.66671C7.99998 4.29852 7.7015 4.00004 7.33331 4.00004C6.96512 4.00004 6.66665 4.29852 6.66665 4.66671C6.66665 5.0349 6.96512 5.33337 7.33331 5.33337ZM5.33331 4.66671C5.33331 5.0349 5.03484 5.33337 4.66665 5.33337C4.29846 5.33337 3.99998 5.0349 3.99998 4.66671C3.99998 4.29852 4.29846 4.00004 4.66665 4.00004C5.03484 4.00004 5.33331 4.29852 5.33331 4.66671ZM1.99998 5.33337C2.36817 5.33337 2.66665 5.0349 2.66665 4.66671C2.66665 4.29852 2.36817 4.00004 1.99998 4.00004C1.63179 4.00004 1.33331 4.29852 1.33331 4.66671C1.33331 5.0349 1.63179 5.33337 1.99998 5.33337ZM3.99998 6.00004C3.99998 6.36823 3.7015 6.66671 3.33331 6.66671C2.96512 6.66671 2.66665 6.36823 2.66665 6.00004C2.66665 5.63185 2.96512 5.33337 3.33331 5.33337C3.7015 5.33337 3.99998 5.63185 3.99998 6.00004ZM5.99998 6.66671C6.36817 6.66671 6.66665 6.36823 6.66665 6.00004C6.66665 5.63185 6.36817 5.33337 5.99998 5.33337C5.63179 5.33337 5.33331 5.63185 5.33331 6.00004C5.33331 6.36823 5.63179 6.66671 5.99998 6.66671ZM9.33331 6.00004C9.33331 6.36823 9.03484 6.66671 8.66665 6.66671C8.29846 6.66671 7.99998 6.36823 7.99998 6.00004C7.99998 5.63185 8.29846 5.33337 8.66665 5.33337C9.03484 5.33337 9.33331 5.63185 9.33331 6.00004ZM9.99998 8.00004C10.3682 8.00004 10.6666 7.70156 10.6666 7.33337C10.6666 6.96518 10.3682 6.66671 9.99998 6.66671C9.63179 6.66671 9.33331 6.96518 9.33331 7.33337C9.33331 7.70156 9.63179 8.00004 9.99998 8.00004ZM7.99998 7.33337C7.99998 7.70156 7.7015 8.00004 7.33331 8.00004C6.96512 8.00004 6.66665 7.70156 6.66665 7.33337C6.66665 6.96518 6.96512 6.66671 7.33331 6.66671C7.7015 6.66671 7.99998 6.96518 7.99998 7.33337ZM4.66665 8.00004C5.03484 8.00004 5.33331 7.70156 5.33331 7.33337C5.33331 6.96518 5.03484 6.66671 4.66665 6.66671C4.29846 6.66671 3.99998 6.96518 3.99998 7.33337C3.99998 7.70156 4.29846 8.00004 4.66665 8.00004ZM2.66665 7.33337C2.66665 7.70156 2.36817 8.00004 1.99998 8.00004C1.63179 8.00004 1.33331 7.70156 1.33331 7.33337C1.33331 6.96518 1.63179 6.66671 1.99998 6.66671C2.36817 6.66671 2.66665 6.96518 2.66665 7.33337Z" fill="url(#paint0_linear_1_272)"/>
</g>
</g>
</g>
<defs>
<filter id="filter0_d_1_272" x="1.33331" y="1.33337" width="9.33331" height="7.66663" filterUnits="userSpaceOnUse" color-interpolation-filters="sRGB">
<feFlood flood-opacity="0" result="BackgroundImageFix"/>
<feColorMatrix in="SourceAlpha" type="matrix" values="0 0 0 0 0 0 0 0 0 0 0 0 0 0 0 0 0 0 127 0" result="hardAlpha"/>
<feOffset dy="1"/>
<feColorMatrix type="matrix" values="0 0 0 0 0 0 0 0 0 0 0 0 0 0 0 0 0 0 0.06 0"/>
<feBlend mode="normal" in2="BackgroundImageFix" result="effect1_dropShadow_1_272"/>
<feBlend mode="normal" in="SourceGraphic" in2="effect1_dropShadow_1_272" result="shape"/>
</filter>
<linearGradient id="paint0_linear_1_272" x1="1.33331" y1="1.33337" x2="1.33331" y2="8.00004" gradientUnits="userSpaceOnUse">
<stop stop-color="white"/>
<stop offset="1" stop-color="#F0F0F0"/>
</linearGradient>
<clipPath id="clip0_1_272">
<rect width="28" height="20" fill="white"/>
</clipPath>
</defs>
</svg>
