<svg width="38" height="38" viewBox="0 0 38 38" fill="none" xmlns="http://www.w3.org/2000/svg">
<path d="M13 33V21C13 18.7909 11.2091 17 9 17H5C2.79086 17 1 18.7909 1 21V33C1 35.2091 2.79086 37 5 37H9C11.2091 37 13 35.2091 13 33ZM13 33V13C13 10.7909 14.7909 9 17 9H21C23.2091 9 25 10.7909 25 13V33M13 33C13 35.2091 14.7909 37 17 37H21C23.2091 37 25 35.2091 25 33M25 33V5C25 2.79086 26.7909 1 29 1H33C35.2091 1 37 2.79086 37 5V33C37 35.2091 35.2091 37 33 37H29C26.7909 37 25 35.2091 25 33Z" stroke="#4C51BF" stroke-width="2"/>
</svg>
