<svg width="38" height="30" viewBox="0 0 38 30" fill="none" xmlns="http://www.w3.org/2000/svg">
<path d="M9 20C8.44772 20 8 20.4477 8 21C8 21.5523 8.44772 22 9 22V20ZM11 22C11.5523 22 12 21.5523 12 21C12 20.4477 11.5523 20 11 20V22ZM19 20C18.4477 20 18 20.4477 18 21C18 21.5523 18.4477 22 19 22V20ZM21 22C21.5523 22 22 21.5523 22 21C22 20.4477 21.5523 20 21 20V22ZM7 2H31V0H7V2ZM36 7V23H38V7H36ZM31 28H7V30H31V28ZM2 23V7H0V23H2ZM7 28C4.23858 28 2 25.7614 2 23H0C0 26.866 3.13401 30 7 30V28ZM36 23C36 25.7614 33.7614 28 31 28V30C34.866 30 38 26.866 38 23H36ZM31 2C33.7614 2 36 4.23858 36 7H38C38 3.13401 34.866 0 31 0V2ZM7 0C3.13401 0 0 3.13401 0 7H2C2 4.23858 4.23858 2 7 2V0ZM1 10H37V8H1V10ZM9 22H11V20H9V22ZM19 22H21V20H19V22Z" fill="#5A67D8"/>
</svg>
