<svg width="38" height="30" viewBox="0 0 38 30" fill="none" xmlns="http://www.w3.org/2000/svg">
<path d="M29 9V5C29 2.79086 27.2091 1 25 1H5C2.79086 1 1 2.79086 1 5V17C1 19.2091 2.79086 21 5 21H9M13 29H33C35.2091 29 37 27.2091 37 25V13C37 10.7909 35.2091 9 33 9H13C10.7909 9 9 10.7909 9 13V25C9 27.2091 10.7909 29 13 29ZM27 19C27 21.2091 25.2091 23 23 23C20.7909 23 19 21.2091 19 19C19 16.7909 20.7909 15 23 15C25.2091 15 27 16.7909 27 19Z" stroke="#5A67D8" stroke-width="2" stroke-linecap="round"/>
</svg>
