<svg width="34" height="34" viewBox="0 0 34 34" fill="none" xmlns="http://www.w3.org/2000/svg">
<path d="M2 1C2 0.447715 1.55228 0 1 0C0.447715 0 0 0.447715 0 1H2ZM1 11H0C0 11.5523 0.447715 12 1 12L1 11ZM31.8839 15.1237C31.9522 15.6718 32.4519 16.0607 33 15.9923C33.548 15.924 33.9369 15.4243 33.8685 14.8763L31.8839 15.1237ZM11 12C11.5523 12 12 11.5523 12 11C12 10.4477 11.5523 10 11 10V12ZM32 33C32 33.5523 32.4477 34 33 34C33.5523 34 34 33.5523 34 33H32ZM33 23H34C34 22.4477 33.5523 22 33 22V23ZM23 22C22.4477 22 22 22.4477 22 23C22 23.5523 22.4477 24 23 24V22ZM2.1161 18.8763C2.04776 18.3282 1.54809 17.9393 1.00005 18.0077C0.452008 18.076 0.0631335 18.5757 0.131473 19.1237L2.1161 18.8763ZM0 1V11H2V1H0ZM17 2C24.6485 2 30.9613 7.72543 31.8839 15.1237L33.8685 14.8763C32.8227 6.48932 25.6699 0 17 0V2ZM3.08997 11.3752C5.31592 5.87619 10.7065 2 17 2V0C9.864 0 3.75725 4.39649 1.2361 10.6248L3.08997 11.3752ZM1 12H2.16303V10H1V12ZM2.16303 12H11V10H2.16303V12ZM34 33V23H32V33H34ZM30.91 22.6248C28.6841 28.1238 23.2935 32 17 32V34C24.136 34 30.2428 29.6035 32.7639 23.3752L30.91 22.6248ZM33 22H31.837V24H33V22ZM31.837 22H23V24H31.837V22ZM17 32C9.35147 32 3.03866 26.2746 2.1161 18.8763L0.131473 19.1237C1.17731 27.5107 8.33006 34 17 34V32Z" fill="#5A67D8"/>
</svg>
